#!OML:ASF F:\VICON\USERDATA\INSTALL\Justin_Nancy\Justin_Nancy.ASF
:FULLY-SPECIFIED
:DEGREES
48
root 11.3455 16.9278 -20.2881 0.567298 -1.01757 8.77019
lowerback 6.45183 -2.27263 -8.33739
upperback 0.836 -3.56176 1.77487
thorax -2.12482 -1.71334 6.82345
lowerneck -18.016 -2.87556 -10.3106
upperneck 21.9748 -2.11111 4.33177
head 10.1632 -1.337 2.95623
rclavicle -2.38542e-015 -2.70347e-014
rhumerus -41.1708 -26.2135 -68.1609
rradius 23.5057
rwrist 16.4495
rhand -15.676 11.2518
rfingers 7.12502
rthumb 10.5127 -18.4653
lclavicle -2.38542e-015 -2.70347e-014
lhumerus -18.363 5.30042 84.3613
lradius 32.9562
lwrist -6.99468
lhand -17.3633 27.2574
lfingers 7.12502
lthumb 8.88482 57.0504
rfemur -30.669 -2.93159 16.7601
rtibia 14.8352
rfoot -5.21693 -5.904
rtoes -15.4579
lfemur 14.7346 -1.91345 -27.8733
ltibia 20.4134
lfoot -13.1804 -6.21979
ltoes -19.4369
49
root 11.2863 16.9175 -20.0254 0.401275 -0.935095 9.01903
lowerback 6.45109 -2.40464 -8.86728
upperback 0.411576 -3.7901 1.81827
thorax -2.49191 -1.78863 7.2004
lowerneck -16.0842 -2.85503 -10.3227
upperneck 21.3762 -2.24217 4.09729
head 9.59866 -1.43079 2.85297
rclavicle -1.33186e-014 1.11319e-014
rhumerus -42.5619 -25.8577 -67.4056
rradius 23.2858
rwrist 16.5866
rhand -15.6166 11.7701
rfingers 7.12502
rthumb 10.57 -17.9441
lclavicle -1.33186e-014 1.11319e-014
lhumerus -19.4338 6.19188 84.1362
lradius 33.2043
lwrist -6.96273
lhand -17.8759 23.955
lfingers 7.12502
lthumb 8.39012 53.7683
rfemur -30.833 -3.18863 17.0199
rtibia 17.1319
rfoot -5.79243 -4.07148
rtoes -14.9407
lfemur 14.7894 -2.22306 -27.7965
ltibia 21.5989
lfoot -11.3342 -7.57072
ltoes -19.2317
50
root 11.222 16.9265 -19.7666 0.238682 -0.778504 9.04621
lowerback 6.57442 -2.5276 -8.956
upperback 0.391314 -3.97271 1.81758
thorax -2.54215 -1.87543 7.26969
lowerneck -15.9614 -2.80908 -10.1876
upperneck 21.2945 -2.185 3.9195
head 9.53916 -1.41262 2.77473
rclavicle -3.27001e-014 -2.54444e-014
rhumerus -43.0863 -26.1061 -67.0763
rradius 23.1779
rwrist 16.9267
rhand -15.5055 11.1234
rfingers 7.12502
rthumb 10.6771 -18.5853
lclavicle -3.27001e-014 -2.54444e-014
lhumerus -19.3556 6.96204 83.8957
lradius 33.0865
lwrist -6.68403
lhand -17.3738 27.6818
lfingers 7.12502
lthumb 8.87468 57.4752
rfemur -30.9772 -2.51205 17.041
rtibia 19.2234
rfoot -3.9258 -2.62087
rtoes -15.5002
lfemur 14.9057 -2.47383 -27.4061
ltibia 22.8797
lfoot -9.52331 -8.64267
ltoes -22.1526
51
root 11.1634 16.9523 -19.5041 0.158291 -0.634263 8.9318
lowerback 6.52234 -2.61959 -8.71272
upperback 0.487892 -4.06884 1.81964
thorax -2.40976 -1.9366 7.13181
lowerneck -16.1858 -2.82019 -10.1804
upperneck 21.3249 -2.15237 3.81911
head 9.5886 -1.40685 2.74192
rclavicle -8.79622e-014 1.59028e-014
rhumerus -43.3946 -26.6015 -66.7677
rradius 23.1692
rwrist 17.1204
rhand -15.1425 10.5359
rfingers 7.12502
rthumb 11.0273 -19.1544
lclavicle -8.79622e-014 1.59028e-014
lhumerus -19.0872 7.54547 83.7878
lradius 33.0332
lwrist -6.25143
lhand -17.685 27.5378
lfingers 7.12502
lthumb 8.5743 57.3437
rfemur -31.3708 -1.29925 16.8184
rtibia 21.1287
rfoot -1.6779 -1.08633
rtoes -12.6343
lfemur 14.9597 -2.75572 -26.8805
ltibia 24.3381
lfoot -7.10139 -10.1649
ltoes -24.4638
52
root 11.0996 16.9678 -19.2403 -0.0196821 -0.470876 8.75812
lowerback 6.50238 -2.73199 -8.50182
upperback 0.502515 -4.19952 1.87211
thorax -2.36997 -2.00656 7.07338
lowerneck -15.97 -2.84769 -10.2089
upperneck 21.3403 -2.16935 3.6542
head 9.55534 -1.438 2.68717
rclavicle 3.55825e-014 -1.74931e-014
rhumerus -43.8751 -26.9627 -66.3199
rradius 23.1968
rwrist 17.1131
rhand -14.4648 10.2438
rfingers 7.12502
rthumb 11.6809 -19.4106
lclavicle 3.55825e-014 -1.74931e-014
lhumerus -19.2531 8.06962 83.6972
lradius 33.065
lwrist -6.14874
lhand -18.5461 26.6559
lfingers 7.12502
lthumb 7.74323 56.4941
rfemur -31.6616 -0.0541128 16.6196
rtibia 22.8846
rfoot 0.208137 0.466212
rtoes -6.41823
lfemur 14.8382 -3.11614 -26.2143
ltibia 26.1081
lfoot -4.35724 -11.8777
ltoes -26.5861
53
root 11.0355 16.9698 -18.983 -0.268529 -0.41547 8.29101
lowerback 6.73673 -2.82054 -8.09086
upperback 0.380238 -4.30616 2.03624
thorax -2.62714 -2.04651 7.04284
lowerneck -15.4798 -2.85647 -10.3498
upperneck 21.4259 -2.19083 3.59687
head 9.49861 -1.47248 2.69049
rclavicle -9.34288e-015 1.27222e-014
rhumerus -44.5414 -27.0086 -65.887
rradius 23.4318
rwrist 16.9472
rhand -13.7021 9.82571
rfingers 7.12502
rthumb 12.4164 -19.7855
lclavicle -9.34288e-015 1.27222e-014
lhumerus -19.5259 8.7396 83.5776
lradius 32.7681
lwrist -6.03903
lhand -20.0522 25.3935
lfingers 7.12502
lthumb 6.28944 55.2801
rfemur -31.6163 0.752608 17.0807
rtibia 24.4937
rfoot 1.27212 2.30804
rtoes -2.58841
lfemur 14.3219 -3.6367 -25.2464
ltibia 28.2727
lfoot -0.423211 -13.5872
ltoes -24.7002
54
root 10.9698 16.9795 -18.7347 -0.385908 -0.767236 7.82523
lowerback 6.9015 -2.83936 -7.73224
upperback 0.274206 -4.31486 2.19568
thorax -2.84273 -2.04044 7.02596
lowerneck -15.3468 -2.78589 -10.3598
upperneck 21.6354 -2.09361 3.53448
head 9.53993 -1.44188 2.68586
rclavicle -3.91606e-014 1.11319e-014
rhumerus -44.9123 -26.3893 -66.1743
rradius 24.1356
rwrist 16.0515
rhand -13.1798 8.80869
rfingers 7.12502
rthumb 12.9199 -20.7714
lclavicle -3.91606e-014 1.11319e-014
lhumerus -19.7658 9.33774 83.3498
lradius 32.4657
lwrist -5.65063
lhand -21.498 23.5298
lfingers 7.12502
lthumb 4.89355 53.4533
rfemur -31.5905 1.45189 17.8391
rtibia 26.0884
rfoot 2.44367 3.30768
rtoes -1.57299
lfemur 13.0076 -3.54543 -24.1884
ltibia 30.7509
lfoot 4.54408 -15.0321
ltoes -21.7342
55
root 10.908 16.9904 -18.4823 -0.570558 -1.08246 7.15331
lowerback 6.93952 -2.91838 -7.00922
upperback 0.441152 -4.35832 2.30103
thorax -2.72627 -2.08168 6.72549
lowerneck -15.8017 -2.73357 -10.0703
upperneck 21.7147 -2.01217 3.40414
head 9.6406 -1.39348 2.60184
rclavicle -5.96354e-016 3.02153e-014
rhumerus -45.1831 -26.585 -66.166
rradius 24.6153
rwrist 16.0757
rhand -12.395 9.03839
rfingers 7.12502
rthumb 13.6763 -20.4923
lclavicle -5.96354e-016 3.02153e-014
lhumerus -19.7278 10.1407 83.0105
lradius 32.2695
lwrist -5.73249
lhand -21.8366 22.8127
lfingers 7.12502
lthumb 4.56657 52.7435
rfemur -31.2971 2.13242 18.8661
rtibia 27.5327
rfoot 2.46824 3.02438
rtoes -1.69526
lfemur 11.3342 -3.2477 -22.8484
ltibia 33.4948
lfoot 9.40936 -16.4404
ltoes -20.4929
56
root 10.8539 16.9873 -18.2332 -0.757266 -1.30067 6.47517
lowerback 7.14012 -3.05111 -6.11544
upperback 0.585769 -4.47167 2.36464
thorax -2.73133 -2.15211 6.30245
lowerneck -16.5219 -2.66745 -9.90373
upperneck 21.9874 -1.89847 3.46321
head 9.86047 -1.32167 2.61121
rclavicle 3.37934e-014 -1.27222e-014
rhumerus -45.2589 -26.5768 -66.4007
rradius 25.1843
rwrist 15.7236
rhand -11.9657 8.71313
rfingers 7.12502
rthumb 14.0901 -20.7892
lclavicle 3.37934e-014 -1.27222e-014
lhumerus -19.769 10.7986 82.6842
lradius 32.2325
lwrist -5.85439
lhand -21.9999 21.0677
lfingers 7.12502
lthumb 4.40889 51.0018
rfemur -30.8494 2.91907 19.8415
rtibia 28.6583
rfoot 1.893 2.49631
rtoes -2.0015
lfemur 9.84213 -3.36136 -21.5987
ltibia 36.2866
lfoot 13.939 -17.5737
ltoes -17.7754
